<svg id="Group_94" data-name="Group 94" xmlns="http://www.w3.org/2000/svg" xmlns:xlink="http://www.w3.org/1999/xlink" width="120.656" height="161.58" viewBox="0 0 120.656 161.58">
  <defs>
    <clipPath id="clip-path">
      <rect id="Rectangle_91" data-name="Rectangle 91" width="120.656" height="161.58" fill="none" stroke="#195729" stroke-width="1"/>
    </clipPath>
  </defs>
  <g id="Group_93" data-name="Group 93" clip-path="url(#clip-path)">
    <path id="Path_64" data-name="Path 64" d="M86.861,109.921v42.428a5.545,5.545,0,0,1-5.545,5.545H9.231a5.544,5.544,0,0,1-5.545-5.545V70.493" fill="none" stroke="#195729" stroke-miterlimit="10" stroke-width="7.371"/>
    <path id="Path_65" data-name="Path 65" d="M3.686,101.186V9.231A5.545,5.545,0,0,1,9.231,3.686H81.316a5.544,5.544,0,0,1,5.545,5.545V46.338" fill="none" stroke="#195729" stroke-miterlimit="10" stroke-width="7.371"/>
    <line id="Line_142" data-name="Line 142" x2="85.837" transform="translate(1.024 26.145)" fill="none" stroke="#195729" stroke-miterlimit="10" stroke-width="7.371"/>
    <line id="Line_143" data-name="Line 143" x2="83.175" transform="translate(3.686 132.609)" fill="none" stroke="#195729" stroke-miterlimit="10" stroke-width="7.371"/>
    <line id="Line_144" data-name="Line 144" x2="17.966" transform="translate(36.797 145.137)" fill="none" stroke="#195729" stroke-miterlimit="10" stroke-width="7.371"/>
    <circle id="Ellipse_39" data-name="Ellipse 39" cx="30.11" cy="30.11" r="30.11" transform="translate(56.751 48.226)" fill="none" stroke="#195729" stroke-miterlimit="10" stroke-width="7.371"/>
    <path id="Path_66" data-name="Path 66" d="M71.578,76.136,83.756,88.469l19.526-21.362" fill="none" stroke="#7eb72e" stroke-miterlimit="10" stroke-width="7.371"/>
  </g>
</svg>
