<svg id="Group_107" data-name="Group 107" xmlns="http://www.w3.org/2000/svg" xmlns:xlink="http://www.w3.org/1999/xlink" width="148.2" height="152.633" viewBox="0 0 148.2 152.633">
  <defs>
    <clipPath id="clip-path">
      <rect id="Rectangle_102" data-name="Rectangle 102" width="148.2" height="152.633" fill="none" stroke="#7eb72e" stroke-width="1"/>
    </clipPath>
  </defs>
  <g id="Group_106" data-name="Group 106" clip-path="url(#clip-path)">
    <path id="Path_85" data-name="Path 85" d="M67.364,43.191A7.362,7.362,0,1,1,60,35.828,7.363,7.363,0,0,1,67.364,43.191Z" fill="none" stroke="#7eb72e" stroke-miterlimit="10" stroke-width="7.371"/>
    <path id="Path_86" data-name="Path 86" d="M86.585,73.389a28.965,28.965,0,1,1,28.965,28.965A28.965,28.965,0,0,1,86.585,73.389Z" fill="none" stroke="#7eb72e" stroke-miterlimit="10" stroke-width="7.371"/>
    <path id="Path_87" data-name="Path 87" d="M100.848,71.273l11.715,11.864,18.783-20.549" fill="none" stroke="#7eb72e" stroke-miterlimit="10" stroke-width="7.371"/>
    <path id="Path_88" data-name="Path 88" d="M115.549,102.354v24.071s0,22.522-22.522,22.522H26.208c-22.522,0-22.522-22.522-22.522-22.522V58.857" fill="none" stroke="#7eb72e" stroke-miterlimit="10" stroke-width="7.371"/>
    <path id="Path_89" data-name="Path 89" d="M3.686,93.775V26.208s0-22.523,22.522-22.523H93.027c22.523,0,22.523,22.523,22.523,22.523V43.191" fill="none" stroke="#7eb72e" stroke-miterlimit="10" stroke-width="7.371"/>
    <rect id="Rectangle_101" data-name="Rectangle 101" width="13.878" height="49.908" transform="translate(53.062 66.808)" fill="none" stroke="#7eb72e" stroke-miterlimit="10" stroke-width="7.371"/>
  </g>
</svg>
