<svg id="Group_111" data-name="Group 111" xmlns="http://www.w3.org/2000/svg" xmlns:xlink="http://www.w3.org/1999/xlink" width="141.585" height="157.744" viewBox="0 0 141.585 157.744">
  <defs>
    <clipPath id="clip-path">
      <rect id="Rectangle_104" data-name="Rectangle 104" width="141.585" height="157.744" fill="none" stroke="#7eb72e" stroke-width="1"/>
    </clipPath>
  </defs>
  <g id="Group_110" data-name="Group 110" clip-path="url(#clip-path)">
    <path id="Path_94" data-name="Path 94" d="M114.234,92.132A19.912,19.912,0,0,0,116.976,52.5,29.505,29.505,0,1,0,69.2,18.29,22.065,22.065,0,0,0,33.33,35.51c0,1.059.224,3.119.224,3.119s-2.005-.175-3.03-.175a26.839,26.839,0,0,0,0,53.678" fill="none" stroke="#7eb72e" stroke-miterlimit="10" stroke-width="7.371"/>
    <path id="Path_95" data-name="Path 95" d="M60.464,141.225A12.833,12.833,0,1,1,73.3,154.058,12.833,12.833,0,0,1,60.464,141.225Z" fill="none" stroke="#7eb72e" stroke-miterlimit="10" stroke-width="7.371"/>
    <path id="Path_96" data-name="Path 96" d="M112.233,116.361a12.833,12.833,0,1,1,12.833,12.833A12.833,12.833,0,0,1,112.233,116.361Z" fill="none" stroke="#7eb72e" stroke-miterlimit="10" stroke-width="7.371"/>
    <path id="Path_97" data-name="Path 97" d="M8.695,114.751a12.833,12.833,0,1,1,12.833,12.833A12.833,12.833,0,0,1,8.695,114.751Z" fill="none" stroke="#7eb72e" stroke-miterlimit="10" stroke-width="7.371"/>
    <line id="Line_145" data-name="Line 145" y2="51.191" transform="translate(73.297 77.201)" fill="none" stroke="#7eb72e" stroke-miterlimit="10" stroke-width="7.371"/>
    <path id="Path_98" data-name="Path 98" d="M92.524,77.2v37.55h19.708" fill="none" stroke="#7eb72e" stroke-miterlimit="10" stroke-width="7.371"/>
    <path id="Path_99" data-name="Path 99" d="M54.07,75.812v38.939H34.362" fill="none" stroke="#7eb72e" stroke-miterlimit="10" stroke-width="7.371"/>
  </g>
</svg>
