<svg id="Group_115" data-name="Group 115" xmlns="http://www.w3.org/2000/svg" xmlns:xlink="http://www.w3.org/1999/xlink" width="154.835" height="163.617" viewBox="0 0 154.835 163.617">
  <defs>
    <clipPath id="clip-path">
      <rect id="Rectangle_106" data-name="Rectangle 106" width="154.835" height="163.617" fill="none" stroke="#7eb72e" stroke-width="1"/>
    </clipPath>
  </defs>
  <g id="Group_114" data-name="Group 114" clip-path="url(#clip-path)">
    <path id="Path_103" data-name="Path 103" d="M61.249,88.968a19.153,19.153,0,1,1,25.662,8.668A19.153,19.153,0,0,1,61.249,88.968Z" fill="none" stroke="#7eb72e" stroke-miterlimit="10" stroke-width="7.371"/>
    <path id="Path_104" data-name="Path 104" d="M102.2,158.5C76.884,166.68,45.266,138.976,31.579,96.62S27.32,13.3,52.636,5.117,109.57,24.64,123.257,67,127.516,150.318,102.2,158.5Z" fill="none" stroke="#7eb72e" stroke-miterlimit="10" stroke-width="7.371"/>
    <path id="Path_105" data-name="Path 105" d="M9.474,130.015c-15.788-20.358,1.833-58.444,39.358-85.067s80.742-31.7,96.529-11.346S143.528,92.046,106,118.669,25.262,150.373,9.474,130.015Z" fill="none" stroke="#7eb72e" stroke-miterlimit="10" stroke-width="7.371"/>
  </g>
</svg>
