<svg id="Group_74" data-name="Group 74" xmlns="http://www.w3.org/2000/svg" xmlns:xlink="http://www.w3.org/1999/xlink" width="109.894" height="167.004" viewBox="0 0 109.894 167.004">
  <defs>
    <clipPath id="clip-path">
      <rect id="Rectangle_78" data-name="Rectangle 78" width="109.894" height="167.004" fill="none" stroke="#7eb72e" stroke-width="1"/>
    </clipPath>
  </defs>
  <g id="Group_73" data-name="Group 73" clip-path="url(#clip-path)">
    <path id="Path_10" data-name="Path 10" d="M34.743,117.361H19.365c-15.679,0-15.679-15.679-15.679-15.679V15.446S23.285,3.686,46.8,3.686s43.118,11.76,43.118,11.76v87.667" fill="none" stroke="#7eb72e" stroke-miterlimit="10" stroke-width="7.371"/>
    <path id="Path_11" data-name="Path 11" d="M61.085,88.865H28.2c-10.794,0-10.794-9.622-10.794-9.622V26.322S30.9,19.106,47.092,19.106s29.683,7.216,29.683,7.216V86.2" fill="none" stroke="#7eb72e" stroke-miterlimit="10" stroke-width="7.371"/>
    <line id="Line_121" data-name="Line 121" y1="45.957" transform="translate(31.047 117.256)" fill="none" stroke="#7eb72e" stroke-miterlimit="10" stroke-width="7.371"/>
    <line id="Line_122" data-name="Line 122" x2="20.842" transform="translate(13.865 163.318)" fill="none" stroke="#7eb72e" stroke-miterlimit="10" stroke-width="7.371"/>
    <line id="Line_123" data-name="Line 123" x2="18.482" transform="translate(22.73 103.113)" fill="none" stroke="#7eb72e" stroke-miterlimit="10" stroke-width="7.371"/>
    <path id="Path_12" data-name="Path 12" d="M100.975,117.156c-2.742-1.126-23.515-7.108-23.515-7.108V89.192a6.963,6.963,0,1,0-13.927,0v41.781H60.051S51.6,122.2,46.817,121.221s-10.174,4.08-4.144,12.321c1.892,2.587,19.659,26.89,20.86,28.767H102.8a32.849,32.849,0,0,0,3.482-13.927V124.009C106.285,120.474,103.717,118.282,100.975,117.156Z" fill="none" stroke="#7eb72e" stroke-miterlimit="10" stroke-width="7.217"/>
  </g>
</svg>
