<svg id="Group_76" data-name="Group 76" xmlns="http://www.w3.org/2000/svg" xmlns:xlink="http://www.w3.org/1999/xlink" width="178.259" height="168.353" viewBox="0 0 178.259 168.353">
  <defs>
    <clipPath id="clip-path">
      <rect id="Rectangle_79" data-name="Rectangle 79" width="178.259" height="168.353" fill="none" stroke="#7eb72e" stroke-width="1"/>
    </clipPath>
  </defs>
  <g id="Group_75" data-name="Group 75" clip-path="url(#clip-path)">
    <path id="Path_13" data-name="Path 13" d="M143.169,124.5a56.341,56.341,0,1,1-4.478-43.238" fill="none" stroke="#7eb72e" stroke-miterlimit="10" stroke-width="7.371"/>
    <path id="Path_14" data-name="Path 14" d="M133.17,116.606a44.762,44.762,0,1,1-2.684-25.662" fill="none" stroke="#7eb72e" stroke-miterlimit="10" stroke-width="7.371"/>
    <circle id="Ellipse_33" data-name="Ellipse 33" cx="8.471" cy="8.471" r="8.471" transform="translate(80.659 3.686)" fill="none" stroke="#7eb72e" stroke-miterlimit="10" stroke-width="7.371"/>
    <line id="Line_124" data-name="Line 124" x2="178.259" transform="translate(0 23.163)" fill="none" stroke="#7eb72e" stroke-miterlimit="10" stroke-width="7.371"/>
    <path id="Path_15" data-name="Path 15" d="M89.13,77.626V108.25L63.974,126.686" fill="none" stroke="#7eb72e" stroke-miterlimit="10" stroke-width="7.371"/>
    <path id="Path_16" data-name="Path 16" d="M86.051,23.448,39.9,47.119,20.666,37.443" fill="none" stroke="#7eb72e" stroke-miterlimit="10" stroke-width="7.371"/>
    <path id="Path_17" data-name="Path 17" d="M92.483,23.448l46.154,23.671,19.231-9.676" fill="none" stroke="#7eb72e" stroke-miterlimit="10" stroke-width="7.371"/>
    <line id="Line_125" data-name="Line 125" y2="28.385" transform="translate(89.13 23.448)" fill="none" stroke="#7eb72e" stroke-miterlimit="10" stroke-width="7.371"/>
    <line id="Line_126" data-name="Line 126" x2="12.578" y2="10.159" transform="translate(76.552 41.674)" fill="none" stroke="#7eb72e" stroke-miterlimit="10" stroke-width="7.371"/>
    <line id="Line_127" data-name="Line 127" x1="12.578" y2="10.159" transform="translate(89.204 41.674)" fill="none" stroke="#7eb72e" stroke-miterlimit="10" stroke-width="7.371"/>
    <path id="Path_18" data-name="Path 18" d="M138.051,103.647a3.173,3.173,0,1,0-3.18,3.18A3.18,3.18,0,0,0,138.051,103.647Z" fill="none" stroke="#7eb72e" stroke-miterlimit="10" stroke-width="4.188"/>
    <path id="Path_19" data-name="Path 19" d="M144.87,91.706a15.57,15.57,0,0,1,.953,23" fill="none" stroke="#7eb72e" stroke-miterlimit="10" stroke-width="6.217"/>
    <path id="Path_20" data-name="Path 20" d="M154.583,83.787a27.979,27.979,0,0,1,.071,39.637" fill="none" stroke="#7eb72e" stroke-miterlimit="10" stroke-width="6.217"/>
    <path id="Path_21" data-name="Path 21" d="M164.174,76.7a39.805,39.805,0,0,1,.005,53.875" fill="none" stroke="#7eb72e" stroke-miterlimit="10" stroke-width="6.217"/>
  </g>
</svg>
