<svg id="Group_78" data-name="Group 78" xmlns="http://www.w3.org/2000/svg" xmlns:xlink="http://www.w3.org/1999/xlink" width="144.667" height="184.849" viewBox="0 0 144.667 184.849">
  <defs>
    <clipPath id="clip-path">
      <rect id="Rectangle_80" data-name="Rectangle 80" width="144.667" height="184.849" fill="none" stroke="#7eb72e" stroke-width="1"/>
    </clipPath>
  </defs>
  <g id="Group_77" data-name="Group 77" clip-path="url(#clip-path)">
    <path id="Path_22" data-name="Path 22" d="M59.853,156.992H22.445c-3.741-7.482-7.041-11.221-18.7-14.963V100.88l3.74-49.935a308.934,308.934,0,0,1,41.15-9.919" fill="none" stroke="#7eb72e" stroke-miterlimit="10" stroke-width="7.482"/>
    <path id="Path_23" data-name="Path 23" d="M37.408,123.324a7.482,7.482,0,1,1-7.482-7.482A7.482,7.482,0,0,1,37.408,123.324Z" fill="none" stroke="#7eb72e" stroke-miterlimit="10" stroke-width="7.482"/>
    <path id="Path_24" data-name="Path 24" d="M59.853,52.249a11.222,11.222,0,0,1,0-22.445" fill="none" stroke="#7eb72e" stroke-miterlimit="10" stroke-width="7.482"/>
    <line id="Line_128" data-name="Line 128" x1="7.482" y2="14.961" transform="translate(14.963 168.214)" fill="none" stroke="#7eb72e" stroke-miterlimit="10" stroke-width="7.482"/>
    <path id="Path_25" data-name="Path 25" d="M59.853,67.212H20.9L18.7,97.139H59.853" fill="none" stroke="#7eb72e" stroke-miterlimit="10" stroke-width="7.482"/>
    <path id="Path_26" data-name="Path 26" d="M126.238,95.27c0,7.371-7.371,14.743-14.743,14.743H70.952" fill="none" stroke="#7eb72e" stroke-miterlimit="10" stroke-width="7.371"/>
    <path id="Path_27" data-name="Path 27" d="M70.953,39.984h47.914a7.372,7.372,0,0,1,7.372,7.371v129H111.5l-3.686-22.113H70.953" fill="none" stroke="#7eb72e" stroke-miterlimit="10" stroke-width="7.371"/>
    <path id="Path_28" data-name="Path 28" d="M111.5,132.127a7.372,7.372,0,1,1-7.371-7.371A7.371,7.371,0,0,1,111.5,132.127Z" fill="none" stroke="#7eb72e" stroke-miterlimit="10" stroke-width="7.371"/>
    <path id="Path_29" data-name="Path 29" d="M74.13,39.984H96.753V54.727h-25.8" fill="none" stroke="#7eb72e" stroke-miterlimit="10" stroke-width="7.371"/>
    <path id="Path_30" data-name="Path 30" d="M140.981,62.1V87.9l-14.743,3.686" fill="none" stroke="#7eb72e" stroke-miterlimit="10" stroke-width="7.371"/>
    <path id="Path_31" data-name="Path 31" d="M34.575,33.2a27.978,27.978,0,0,1,36.048-16.48" fill="none" stroke="#7eb72e" stroke-miterlimit="10" stroke-width="6.217"/>
    <path id="Path_32" data-name="Path 32" d="M24.152,27.409A39.807,39.807,0,0,1,73.188,5.092" fill="none" stroke="#7eb72e" stroke-miterlimit="10" stroke-width="6.217"/>
  </g>
</svg>
