<svg id="Group_101" data-name="Group 101" xmlns="http://www.w3.org/2000/svg" xmlns:xlink="http://www.w3.org/1999/xlink" width="188.185" height="160.191" viewBox="0 0 188.185 160.191">
  <defs>
    <clipPath id="clip-path">
      <rect id="Rectangle_98" data-name="Rectangle 98" width="188.185" height="160.191" fill="none" stroke="#7eb72e" stroke-width="1"/>
    </clipPath>
  </defs>
  <g id="Group_100" data-name="Group 100" clip-path="url(#clip-path)">
    <path id="Path_71" data-name="Path 71" d="M23.077,107.113A76.422,76.422,0,0,0,170.982,80.1" fill="none" stroke="#195729" stroke-miterlimit="10" stroke-width="7.371"/>
    <path id="Path_72" data-name="Path 72" d="M18.163,80.1a76.422,76.422,0,0,1,149.38-22.734" fill="none" stroke="#7eb72e" stroke-miterlimit="10" stroke-width="7.371"/>
    <path id="Path_73" data-name="Path 73" d="M185.179,100.09,170.648,79.614,152.833,97" fill="none" stroke="#195729" stroke-miterlimit="10" stroke-width="7.371"/>
    <path id="Path_74" data-name="Path 74" d="M3.006,65.339,17.537,85.815,35.352,68.426" fill="none" stroke="#7eb72e" stroke-miterlimit="10" stroke-width="7.371"/>
    <path id="Path_75" data-name="Path 75" d="M69.807,51.958A37.645,37.645,0,0,1,77.4,47.03l2.721-10.438,11.151-2.057,6.265,8.781a37.662,37.662,0,0,1,8.848,1.9l9.31-5.464,9.338,6.431-1.783,10.646a37.645,37.645,0,0,1,4.928,7.589l10.438,2.721,2.057,11.15-8.781,6.266a37.654,37.654,0,0,1-1.9,8.847l5.464,9.31-6.43,9.339-10.646-1.783a37.724,37.724,0,0,1-7.59,4.928l-2.721,10.438-11.15,2.057-6.266-8.781a37.723,37.723,0,0,1-8.848-1.9L72.5,122.474l-9.339-6.431L64.939,105.4a37.688,37.688,0,0,1-4.928-7.589L49.573,95.087,47.516,83.936,56.3,77.671a37.673,37.673,0,0,1,1.9-8.848l-5.464-9.31,6.431-9.338Z" fill="none" stroke="#195729" stroke-miterlimit="10" stroke-width="7.371"/>
    <path id="Path_76" data-name="Path 76" d="M113.226,84.07A19.329,19.329,0,1,1,98.351,61.164,19.312,19.312,0,0,1,113.226,84.07Z" fill="none" stroke="#195729" stroke-miterlimit="10" stroke-width="7.371"/>
  </g>
</svg>
