<svg id="Group_134" data-name="Group 134" xmlns="http://www.w3.org/2000/svg" xmlns:xlink="http://www.w3.org/1999/xlink" width="257.976" height="103.467" viewBox="0 0 257.976 103.467">
  <defs>
    <clipPath id="clip-path">
      <rect id="Rectangle_117" data-name="Rectangle 117" width="257.976" height="103.467" transform="translate(0 0)" fill="none"/>
    </clipPath>
  </defs>
  <g id="Group_133" data-name="Group 133" clip-path="url(#clip-path)">
    <path id="Path_123" data-name="Path 123" d="M158.064,33.229l5.119-12.859H152.918v.015H101.536a19.266,19.266,0,1,0,0,38.532h38.823a6.422,6.422,0,1,1,0,12.844H46.119a17.177,17.177,0,0,1-12.582-5.239A18.818,18.818,0,0,1,27.651,52.4a18.907,18.907,0,0,1,5.885-14.127,17.088,17.088,0,0,1,12.583-5.039H75.547l5.327-12.844H46.119a33.583,33.583,0,0,0-24.36,9.841,30.669,30.669,0,0,0,0,44.375,33.628,33.628,0,0,0,24.364,10h94.713a19.267,19.267,0,0,0,0-38.534H102.01a6.422,6.422,0,1,1,0-12.844h50.908v0Z" fill="#fff"/>
    <path id="Path_124" data-name="Path 124" d="M190.921,20.37,185.8,33.229l11.727,0V84.605h13.317V33.231l29.751,0,5.118-12.859Z" fill="#fff"/>
    <rect id="Rectangle_115" data-name="Rectangle 115" width="13.317" height="44.396" transform="translate(167.968 40.209)" fill="#fff"/>
    <path id="Path_125" data-name="Path 125" d="M166.909,26.579a7.717,7.717,0,1,1,7.717,7.717,7.717,7.717,0,0,1-7.717-7.717" fill="#fff"/>
    <path id="Path_126" data-name="Path 126" d="M257.976,103.467H0V0H257.976ZM3,100.467H254.976V3H3Z" fill="#fff"/>
    <rect id="Rectangle_116" data-name="Rectangle 116" width="2" height="100.467" transform="translate(173.625 1.5)" fill="#fff"/>
  </g>
</svg>
