<svg id="Component_29_1" data-name="Component 29 – 1" xmlns="http://www.w3.org/2000/svg" xmlns:xlink="http://www.w3.org/1999/xlink" width="187" height="73.683" viewBox="0 0 187 73.683">
  <defs>
    <clipPath id="clip-path">
      <rect id="Rectangle_22" data-name="Rectangle 22" width="187" height="73.683" fill="none"/>
    </clipPath>
  </defs>
  <rect id="Rectangle_21" data-name="Rectangle 21" width="187" height="73.683" fill="#fff"/>
  <g id="Group_3" data-name="Group 3">
    <g id="Group_2" data-name="Group 2" clip-path="url(#clip-path)">
      <path id="Path_1" data-name="Path 1" d="M173.5,3.261V13.267a5.62,5.62,0,0,1,3.08,1.491l.029.027c.094.091.183.186.271.283.03.033.06.065.089.1.075.087.145.176.214.267.037.049.075.1.111.148.06.084.117.169.172.257q.059.094.114.189c.048.082.093.165.137.25s.073.149.108.224.073.161.106.243.065.172.095.259.055.155.078.235c.029.1.052.2.076.3.017.073.037.146.051.221.023.115.038.233.054.351.008.062.02.122.026.184.018.183.028.367.028.553s-.01.371-.028.553c-.006.062-.018.122-.026.184-.015.118-.031.236-.054.351-.015.075-.034.147-.051.221-.024.1-.048.2-.076.3-.023.079-.051.156-.078.234s-.061.175-.1.26-.069.162-.106.243-.071.151-.109.225-.089.167-.136.249c-.037.064-.076.127-.115.189-.055.087-.111.173-.172.257-.036.051-.073.1-.111.148-.069.091-.139.18-.213.266-.029.034-.06.066-.089.1-.088.1-.177.192-.271.282l-.031.029a5.621,5.621,0,0,1-3.078,1.49h0v4.257h4.083V61.237H173.5V72.273h57.474V3.261Z" transform="translate(-46.255 -0.869)" fill="#7eb72e"/>
      <path id="Path_2" data-name="Path 2" d="M122.407,28.678h4.083V24.421h0a5.607,5.607,0,0,1-3.078-1.49l-.03-.027c-.094-.09-.183-.186-.271-.282-.03-.033-.061-.065-.089-.1-.075-.086-.144-.175-.213-.265-.037-.05-.076-.1-.111-.15-.059-.084-.116-.169-.171-.256-.04-.062-.078-.125-.115-.19q-.072-.122-.136-.249c-.038-.074-.074-.15-.109-.226s-.073-.161-.106-.242-.065-.173-.1-.261-.054-.154-.078-.233c-.029-.1-.053-.2-.076-.3-.018-.073-.037-.146-.052-.22-.022-.115-.037-.232-.053-.35-.008-.062-.02-.123-.026-.186-.018-.182-.028-.366-.028-.552s.01-.371.028-.552c.007-.063.018-.125.026-.187.015-.117.031-.235.053-.35.015-.074.034-.147.052-.22.023-.1.047-.2.076-.3.023-.079.051-.156.078-.234s.061-.175.1-.26.069-.163.106-.243.07-.151.109-.225.089-.168.136-.25c.037-.064.076-.127.115-.189.055-.087.111-.172.171-.256.036-.051.073-.1.111-.149.069-.091.139-.18.213-.266.029-.034.059-.065.089-.1.087-.1.177-.192.271-.283l.03-.027a5.609,5.609,0,0,1,3.08-1.49V3.261H3.165V72.274H126.49V61.238h-4.083Z" transform="translate(-0.844 -0.869)" fill="#195729"/>
      <path id="Path_3" data-name="Path 3" d="M116.978,27.508l3.754-9.431H113.2v.011H75.52a14.13,14.13,0,0,0,0,28.259h28.473a4.71,4.71,0,1,1,0,9.42H34.878a12.6,12.6,0,0,1-9.228-3.842,13.8,13.8,0,0,1-4.317-10.362A13.867,13.867,0,0,1,25.649,31.2a12.532,12.532,0,0,1,9.228-3.7H56.46l3.907-9.42H34.878a24.63,24.63,0,0,0-17.866,7.217,22.492,22.492,0,0,0,0,32.545,24.663,24.663,0,0,0,17.869,7.336H104.34a14.13,14.13,0,0,0,0-28.261H75.868a4.71,4.71,0,1,1,0-9.42h41.11Z" transform="translate(-2.678 -4.819)" fill="#fff"/>
      <path id="Path_4" data-name="Path 4" d="M187.342,18.077l-3.754,9.431h8.6V65.187h9.767V27.509h21.819l3.754-9.431Z" transform="translate(-48.944 -4.819)" fill="#fff"/>
    </g>
  </g>
</svg>
