<svg id="Group_82" data-name="Group 82" xmlns="http://www.w3.org/2000/svg" xmlns:xlink="http://www.w3.org/1999/xlink" width="119.706" height="158.788" viewBox="0 0 119.706 158.788">
  <defs>
    <clipPath id="clip-path">
      <rect id="Rectangle_82" data-name="Rectangle 82" width="119.706" height="158.788" fill="none" stroke="#195729" stroke-width="1"/>
    </clipPath>
  </defs>
  <g id="Group_81" data-name="Group 81" clip-path="url(#clip-path)">
    <path id="Path_36" data-name="Path 36" d="M71.076,14.964a308.894,308.894,0,0,1,41.149,9.919l3.741,49.934v41.149c-11.223,3.741-14.963,7.482-18.7,14.964H22.445c-3.741-7.482-7.041-11.221-18.7-14.964V74.817L7.482,24.883a308.894,308.894,0,0,1,41.149-9.919" fill="none" stroke="#195729" stroke-miterlimit="10" stroke-width="7.482"/>
    <path id="Path_37" data-name="Path 37" d="M37.408,97.262a7.482,7.482,0,1,1-7.482-7.482A7.482,7.482,0,0,1,37.408,97.262Z" fill="none" stroke="#7eb72e" stroke-miterlimit="10" stroke-width="7.482"/>
    <path id="Path_38" data-name="Path 38" d="M97.261,97.262a7.481,7.481,0,1,1-7.482-7.482A7.482,7.482,0,0,1,97.261,97.262Z" fill="none" stroke="#7eb72e" stroke-miterlimit="10" stroke-width="7.482"/>
    <path id="Path_39" data-name="Path 39" d="M71.076,14.964A11.222,11.222,0,1,1,59.854,3.742,11.222,11.222,0,0,1,71.076,14.964Z" fill="none" stroke="#195729" stroke-miterlimit="10" stroke-width="7.482"/>
    <line id="Line_132" data-name="Line 132" x1="7.482" y2="14.961" transform="translate(14.963 142.152)" fill="none" stroke="#195729" stroke-miterlimit="10" stroke-width="7.482"/>
    <line id="Line_133" data-name="Line 133" x2="7.482" y2="14.963" transform="translate(97.261 142.152)" fill="none" stroke="#195729" stroke-miterlimit="10" stroke-width="7.482"/>
    <path id="Path_40" data-name="Path 40" d="M98.855,41.149H20.9L18.7,71.076H101Z" fill="none" stroke="#195729" stroke-miterlimit="10" stroke-width="7.482"/>
  </g>
</svg>
