<svg id="Group_86" data-name="Group 86" xmlns="http://www.w3.org/2000/svg" xmlns:xlink="http://www.w3.org/1999/xlink" width="175.128" height="165.812" viewBox="0 0 175.128 165.812">
  <defs>
    <clipPath id="clip-path">
      <rect id="Rectangle_85" data-name="Rectangle 85" width="175.128" height="165.812" fill="none" stroke="#195729" stroke-width="1"/>
    </clipPath>
  </defs>
  <g id="Group_85" data-name="Group 85" clip-path="url(#clip-path)">
    <path id="Path_47" data-name="Path 47" d="M87.564,35.225a94.778,94.778,0,0,1,44.789,11.2V124.8c-7.465,3.732-10.758,7.465-14.49,14.93H57.705c-3.732-7.465-7.465-11.2-14.93-14.93V46.422A94.778,94.778,0,0,1,87.564,35.225Z" fill="none" stroke="#195729" stroke-miterlimit="10" stroke-width="7.371"/>
    <path id="Path_48" data-name="Path 48" d="M132.352,68.817c0,7-8.143,22.394-44.789,22.394s-44.788-15.4-44.788-22.394" fill="none" stroke="#195729" stroke-miterlimit="10" stroke-width="7.371"/>
    <circle id="Ellipse_35" data-name="Ellipse 35" cx="7.465" cy="7.465" r="7.465" transform="translate(57.704 106.14)" fill="none" stroke="#7eb72e" stroke-miterlimit="10" stroke-width="7.371"/>
    <circle id="Ellipse_36" data-name="Ellipse 36" cx="7.465" cy="7.465" r="7.465" transform="translate(102.493 106.14)" fill="none" stroke="#7eb72e" stroke-miterlimit="10" stroke-width="7.371"/>
    <line id="Line_134" data-name="Line 134" x2="52.253" transform="translate(61.437 162.126)" fill="none" stroke="#7eb72e" stroke-miterlimit="10" stroke-width="7.371"/>
    <path id="Path_49" data-name="Path 49" d="M106.226,37.106V50.155H68.9V37.106" fill="none" stroke="#195729" stroke-miterlimit="10" stroke-width="7.371"/>
    <path id="Path_50" data-name="Path 50" d="M49.612,149.032l-6.838,9.463A83.883,83.883,0,1,1,171.442,87.563c0,31.678-15.05,57.815-40.968,72.086l-8.941-10.617" fill="none" stroke="#195729" stroke-miterlimit="10" stroke-width="7.371"/>
  </g>
</svg>
