<svg id="Group_92" data-name="Group 92" xmlns="http://www.w3.org/2000/svg" xmlns:xlink="http://www.w3.org/1999/xlink" width="93.607" height="167.004" viewBox="0 0 93.607 167.004">
  <defs>
    <clipPath id="clip-path">
      <rect id="Rectangle_90" data-name="Rectangle 90" width="93.607" height="167.004" fill="none" stroke="#195729" stroke-width="1"/>
    </clipPath>
  </defs>
  <g id="Group_91" data-name="Group 91" clip-path="url(#clip-path)">
    <path id="Path_62" data-name="Path 62" d="M89.922,15.446v86.236s0,15.679-15.679,15.679H19.365c-15.679,0-15.679-15.679-15.679-15.679V15.446S23.285,3.687,46.8,3.687,89.922,15.446,89.922,15.446Z" fill="none" stroke="#195729" stroke-miterlimit="10" stroke-width="7.371"/>
    <path id="Path_63" data-name="Path 63" d="M76.775,26.322V79.243s0,9.622-10.794,9.622H28.2c-10.793,0-10.793-9.622-10.793-9.622V26.322S30.9,19.106,47.092,19.106,76.775,26.322,76.775,26.322Z" fill="none" stroke="#195729" stroke-miterlimit="10" stroke-width="7.371"/>
    <rect id="Rectangle_89" data-name="Rectangle 89" width="28.563" height="45.957" transform="translate(32.522 117.361)" fill="none" stroke="#195729" stroke-miterlimit="10" stroke-width="7.371"/>
    <line id="Line_139" data-name="Line 139" x2="66.086" transform="translate(13.761 163.318)" fill="none" stroke="#195729" stroke-miterlimit="10" stroke-width="7.371"/>
    <line id="Line_140" data-name="Line 140" x2="18.482" transform="translate(22.73 103.113)" fill="none" stroke="#7eb72e" stroke-miterlimit="10" stroke-width="7.371"/>
    <line id="Line_141" data-name="Line 141" x2="18.482" transform="translate(51.844 103.113)" fill="none" stroke="#7eb72e" stroke-miterlimit="10" stroke-width="7.371"/>
  </g>
</svg>
