<svg id="Group_88" data-name="Group 88" xmlns="http://www.w3.org/2000/svg" xmlns:xlink="http://www.w3.org/1999/xlink" width="149.619" height="165.266" viewBox="0 0 149.619 165.266">
  <defs>
    <clipPath id="clip-path">
      <rect id="Rectangle_87" data-name="Rectangle 87" width="149.619" height="165.266" fill="none" stroke="#195729" stroke-width="1"/>
    </clipPath>
  </defs>
  <g id="Group_87" data-name="Group 87" clip-path="url(#clip-path)">
    <path id="Path_51" data-name="Path 51" d="M118.667,97.566c0,5.82-5.82,11.639-11.639,11.639H43.013c-5.819,0-11.639-5.819-11.639-11.639" fill="none" stroke="#195729" stroke-miterlimit="10" stroke-width="7.371"/>
    <path id="Path_52" data-name="Path 52" d="M104.119,144.122h-58.2l-2.91,17.459H31.375V59.739a5.82,5.82,0,0,1,5.819-5.82h75.654a5.82,5.82,0,0,1,5.82,5.82V161.581H107.029Z" fill="none" stroke="#195729" stroke-miterlimit="10" stroke-width="7.371"/>
    <path id="Path_53" data-name="Path 53" d="M54.653,126.663a5.819,5.819,0,1,1-5.82-5.82A5.82,5.82,0,0,1,54.653,126.663Z" fill="none" stroke="#7eb72e" stroke-miterlimit="10" stroke-width="7.371"/>
    <path id="Path_54" data-name="Path 54" d="M107.028,126.663a5.819,5.819,0,1,1-5.82-5.82A5.82,5.82,0,0,1,107.028,126.663Z" fill="none" stroke="#7eb72e" stroke-miterlimit="10" stroke-width="7.371"/>
    <rect id="Rectangle_86" data-name="Rectangle 86" width="40.737" height="11.639" transform="translate(54.652 53.919)" fill="none" stroke="#195729" stroke-miterlimit="10" stroke-width="7.371"/>
    <path id="Path_55" data-name="Path 55" d="M130.307,71.378V91.746l-11.639,2.91" fill="none" stroke="#195729" stroke-miterlimit="10" stroke-width="7.371"/>
    <path id="Path_56" data-name="Path 56" d="M19.735,71.378V91.746l11.639,2.91" fill="none" stroke="#195729" stroke-miterlimit="10" stroke-width="7.371"/>
    <path id="Path_57" data-name="Path 57" d="M108.5,161.58h37.434V49.271L74.81,4.359,3.686,49.271V161.58H41.119" fill="none" stroke="#195729" stroke-miterlimit="10" stroke-width="7.371"/>
  </g>
</svg>
