<svg id="Group_126" data-name="Group 126" xmlns="http://www.w3.org/2000/svg" xmlns:xlink="http://www.w3.org/1999/xlink" width="144.061" height="160.977" viewBox="0 0 144.061 160.977">
  <defs>
    <clipPath id="clip-path">
      <rect id="Rectangle_111" data-name="Rectangle 111" width="144.061" height="160.977" fill="none" stroke="#195729" stroke-width="1"/>
    </clipPath>
  </defs>
  <g id="Group_125" data-name="Group 125" clip-path="url(#clip-path)">
    <path id="Path_118" data-name="Path 118" d="M82.446,101.174a28.965,28.965,0,1,1,28.965,28.965A28.965,28.965,0,0,1,82.446,101.174Z" fill="none" stroke="#195729" stroke-miterlimit="10" stroke-width="7.371"/>
    <path id="Path_119" data-name="Path 119" d="M96.709,99.058l11.715,11.864,18.783-20.549" fill="none" stroke="#7eb72e" stroke-miterlimit="10" stroke-width="7.371"/>
    <path id="Path_120" data-name="Path 120" d="M124.568,75.937l8.71-17.607L103.131,43.418c-4.4-2.175-4.679-8.356-1.414-10.933,2.418-2.3,9.011-4.426,12.26-10.992,3.012-6.089-3.008-11.792-9.636-15-6.572-3.321-14.758-4.646-17.77,1.443-3.248,6.566-.934,13.1-1.3,16.415-.067,4.159-5.152,7.685-9.548,5.51L48.32,16.3,33.407,46.45c-2.175,4.4,1.351,9.481,5.51,9.548,3.32.363,9.849-1.95,16.415,1.3,6.089,3.012,4.765,11.2,1.443,17.77-3.208,6.627-8.911,12.647-15,9.635-6.566-3.248-8.688-9.841-10.992-12.26-2.577-3.265-8.758-2.982-10.932,1.414L4.938,104l27.406,13.557c4.4,2.175,4.679,8.355,1.414,10.933-2.419,2.3-9.012,4.425-12.26,10.991-3.012,6.089,3.008,11.793,9.636,15,6.572,3.321,14.758,4.645,17.77-1.444,3.248-6.566.934-13.094,1.3-16.414.067-4.159,5.151-7.685,9.547-5.51l30.146,14.912L99.111,127.4" fill="none" stroke="#195729" stroke-miterlimit="10" stroke-width="7.371"/>
  </g>
</svg>
